<svg width="517" height="167" viewBox="0 0 517 167" fill="none" xmlns="http://www.w3.org/2000/svg">
<path d="M15.1949 166.053C9.76259 166.053 4.69733 165.612 -0.000883632 164.731C7.04644 139.038 12.6256 113.198 16.7365 87.2109C20.9943 61.0771 25.0318 34.7965 28.8491 8.36903C36.4837 6.75401 44.4119 5.35923 52.6338 4.18468C60.8557 2.86331 69.3712 2.20262 78.1803 2.20262C83.0253 2.20262 88.164 3.08354 93.5963 4.84536C99.0286 6.46038 103.58 9.47017 107.251 13.8747C111.068 18.1325 112.976 24.2255 112.976 32.1537C112.976 39.4947 111.435 46.2484 108.352 52.4148C105.268 58.5812 101.378 63.8667 96.6795 68.2712C91.9813 72.6758 87.1363 75.8324 82.1444 77.7411C84.1999 78.7688 86.6224 80.604 89.412 83.2468C92.2015 85.8895 94.6241 89.4132 96.6795 93.8178C98.735 98.2223 99.7627 103.581 99.7627 109.894C99.7627 118.704 97.12 126.705 91.8345 133.899C86.6958 140.947 79.7953 146.819 71.133 151.518C62.7643 156.216 53.7349 159.813 44.0449 162.309C34.3548 164.805 24.7381 166.053 15.1949 166.053ZM54.3956 59.6823C58.947 58.8014 63.2782 57.6268 67.3891 56.1587C71.5 54.6905 74.8035 53.0021 77.2994 51.0934C79.9421 49.1847 81.2635 47.1293 81.2635 44.927C81.2635 42.1374 80.1624 39.9351 77.9601 38.3201C75.7578 36.7051 73.1151 35.5306 70.0318 34.7965C66.9486 34.0624 64.0857 33.6953 61.4429 33.6953H59.2406C58.2129 39.5681 57.2586 44.7068 56.3777 49.1113C55.4968 53.3691 54.8361 56.8928 54.3956 59.6823ZM43.1639 121.567C46.1003 121.273 49.3303 120.759 52.854 120.025C56.3777 119.291 59.7545 118.19 62.9845 116.722C66.2146 115.107 68.8573 113.051 70.9128 110.555C73.1151 107.912 74.2162 104.756 74.2162 101.085C74.2162 97.5617 73.0416 94.7721 70.6925 92.7166C68.3434 90.6612 65.4805 89.193 62.1036 88.3121C58.8736 87.2843 55.7904 86.7705 52.854 86.7705H51.0922C50.3581 86.7705 49.7708 86.8439 49.3303 86.9907C48.4494 92.423 47.4217 98.1489 46.2471 104.169C45.0726 110.188 44.0449 115.987 43.1639 121.567ZM96.1806 165.392L125.031 8.80948L194.623 2.8633C193.595 6.09333 192.714 9.39676 191.98 12.7736C191.246 15.5632 190.512 18.4995 189.778 21.5828C189.191 24.5191 188.677 27.1619 188.236 29.511C186.328 29.6578 183.611 29.8046 180.088 29.9514C176.564 29.9514 172.967 30.0248 169.297 30.1717C165.626 30.1717 162.469 30.1717 159.827 30.1717C157.184 30.1717 155.789 30.1717 155.642 30.1717L147.934 69.5926L160.708 68.9319C162.323 68.7851 163.938 68.7117 165.553 68.7117C167.314 68.7117 169.003 68.7117 170.618 68.7117C172.233 68.7117 173.701 68.7117 175.022 68.7117C176.344 68.7117 177.372 68.6383 178.106 68.4915C177.812 70.5469 177.518 72.6024 177.225 74.6579C177.078 76.5665 176.858 78.5486 176.564 80.604L174.582 92.7166C173.848 92.8634 172.894 92.9369 171.719 92.9369C170.544 92.9369 169.15 92.9369 167.535 92.9369C165.92 93.0837 164.231 93.1571 162.469 93.1571C160.708 93.1571 159.019 93.2305 157.404 93.3773C155.496 93.5241 153.513 93.5975 151.458 93.5975C149.403 93.5975 147.2 93.6709 144.851 93.8178L137.363 134.34L169.517 129.275L167.314 154.381L96.1806 165.392ZM170.578 166.273C174.983 145.131 179.167 124.65 183.131 104.829C186.361 86.1832 189.518 68.2712 192.601 51.0934C195.684 33.9156 197.887 18.1325 199.208 3.74422C200.236 3.89104 201.117 3.96444 201.851 3.96444C202.732 3.96444 203.466 3.96444 204.053 3.96444H208.678C212.495 3.96444 216.753 3.89104 221.451 3.74422C226.149 3.45058 230.481 3.23035 234.445 3.08353C235.472 8.2222 236.427 13.2875 237.308 18.2793C238.335 23.2712 239.216 28.1162 239.95 32.8144C240.684 36.9254 241.492 41.1831 242.373 45.5877C243.254 49.8454 244.135 54.1766 245.016 58.5812C245.75 62.9857 246.484 67.0967 247.218 70.914C248.099 74.5845 248.833 77.9613 249.42 81.0445C251.182 72.3822 252.797 63.8667 254.265 55.498C255.88 47.1293 257.422 39.5681 258.89 32.8144L265.277 3.30377L292.145 0.000326381C289.649 11.1586 287.3 22.0966 285.097 32.8144C282.895 43.5322 280.839 53.883 278.931 63.8667C275.26 81.7786 272.03 98.6628 269.241 114.519C266.451 130.376 264.322 144.177 262.854 155.922C264.469 155.922 264.176 156.142 261.973 156.583C259.918 156.877 256.835 157.39 252.724 158.125C248.613 158.712 244.208 159.519 239.51 160.547C234.812 161.575 230.627 162.823 226.957 164.291C226.516 158.418 226.076 152.692 225.635 147.113C225.195 141.534 224.681 136.102 224.094 130.816C223.213 121.42 222.185 112.097 221.011 102.847C219.836 93.5975 218.662 86.2566 217.487 80.8243C216.459 87.2843 215.211 94.6987 213.743 103.067C212.275 111.289 210.66 119.585 208.898 127.953L202.732 158.785L170.578 166.273ZM270.154 164.952C272.21 156.436 274.265 146.819 276.321 136.102C278.376 125.237 280.432 114.005 282.487 102.407C284.543 90.808 286.451 79.6497 288.213 68.9319C289.828 59.5355 291.37 49.9922 292.838 40.3022C294.453 30.6121 295.995 20.8487 297.463 11.0118L331.818 5.50605L321.908 63.4262C319.706 77.0804 317.724 89.3398 315.962 100.204C314.347 111.069 312.732 121.346 311.117 131.036C309.649 140.726 308.107 150.637 306.492 160.767C303.703 160.767 300.326 160.988 296.362 161.428C292.397 161.722 288.433 162.162 284.469 162.749C280.505 163.19 277.128 163.63 274.339 164.071C271.696 164.511 270.301 164.805 270.154 164.952ZM333.393 165.392C335.008 157.317 336.623 149.315 338.238 141.387C340 133.312 341.615 125.384 343.083 117.602C348.662 89.7068 353.213 62.9857 356.737 37.4392C355.122 37.1456 353.434 36.9988 351.672 36.9988C349.91 36.8519 348.221 36.8519 346.606 36.9988C343.083 37.2924 339.633 36.8519 336.256 35.6774C336.403 34.5028 336.476 33.2549 336.476 31.9335C336.476 30.4653 336.476 28.9971 336.476 27.5289C336.476 25.9139 336.476 24.3723 336.476 22.9041C336.476 21.2891 336.549 19.7475 336.696 18.2793C336.843 16.6643 336.916 14.9759 336.916 13.214C336.916 11.3054 336.99 9.39676 337.137 7.48811C340.954 7.78175 344.771 8.00197 348.589 8.14879C352.406 8.29561 356.223 8.36903 360.04 8.36903C370.905 8.36903 381.256 8.00198 391.093 7.26789C401.076 6.53378 410.253 5.65286 418.621 4.62514L416.199 16.5175L414.217 26.8682C413.483 30.6855 412.822 33.6953 412.235 35.8976C410.62 36.3381 409.005 36.7051 407.39 36.9988C405.775 37.2924 404.16 37.5126 402.545 37.6594C400.93 37.8063 399.241 38.0265 397.479 38.3201C395.864 38.6138 394.249 38.9074 392.634 39.201C390.432 50.0657 388.597 59.4621 387.129 67.3903C385.807 75.3186 384.559 82.9532 383.385 90.2941C382.357 97.4882 381.109 105.416 379.641 114.079C377.145 128.908 374.943 143.957 373.034 159.226L333.393 165.392ZM433.223 166.053C423.533 166.053 415.605 162.309 409.439 154.821C403.272 147.333 400.189 136.028 400.189 120.906C400.189 112.537 401.217 103.728 403.272 94.4785C405.328 85.2289 408.191 76.1261 411.861 67.1701C415.532 58.2141 419.789 49.9188 424.634 42.2842C432.416 29.9514 441.372 19.8943 451.502 12.1129C461.633 4.3315 472.277 0.440791 483.436 0.440791C492.245 0.440791 498.998 2.71649 503.697 7.26789C508.542 11.6725 511.918 17.3984 513.827 24.4457C515.736 31.3462 516.69 38.5404 516.69 46.0281C516.69 63.4996 513.974 79.7965 508.542 94.9189C503.256 109.894 496.356 122.594 487.84 133.018C479.325 143.736 470.222 151.958 460.532 157.684C450.989 163.263 441.886 166.053 433.223 166.053ZM445.116 129.715C451.723 129.715 457.522 127.513 462.514 123.108C467.652 118.704 471.984 113.124 475.507 106.371C479.031 99.4703 481.674 92.2762 483.436 84.7884C485.197 77.3006 486.078 70.5469 486.078 64.5273C486.078 62.1782 485.858 59.6823 485.418 57.0396C484.977 54.25 484.023 51.8275 482.555 49.772C481.086 47.7166 478.811 46.6888 475.728 46.6888C468.974 46.6888 462.881 49.1847 457.449 54.1766C452.016 59.0216 447.465 65.188 443.794 72.6758C440.124 80.3104 437.408 87.7982 435.646 95.1391C433.884 102.48 433.003 109.16 433.003 115.18C433.003 118.263 434.104 121.493 436.307 124.87C438.509 128.1 441.445 129.715 445.116 129.715Z" fill="#131313"/>
</svg>
